<svg width="14" height="18" viewBox="0 0 14 18" fill="none" xmlns="http://www.w3.org/2000/svg">
<path d="M7 17.3333C5.23611 17.3333 3.68416 16.7189 2.34416 15.49C1.00361 14.2606 0.333328 12.5972 0.333328 10.5C0.333328 9.18056 0.833328 7.75 1.83333 6.20833C2.83333 4.66667 4.34722 3 6.375 1.20833C6.45833 1.13889 6.55555 1.08333 6.66666 1.04167C6.77777 1 6.88888 0.979168 7 0.979168C7.11111 0.979168 7.22222 1 7.33333 1.04167C7.44444 1.08333 7.54166 1.13889 7.625 1.20833C9.65277 3 11.1667 4.66667 12.1667 6.20833C13.1667 7.75 13.6667 9.18056 13.6667 10.5C13.6667 12.5972 12.9964 14.2606 11.6558 15.49C10.3158 16.7189 8.76388 17.3333 7 17.3333ZM7.22916 14.8333C7.39583 14.8194 7.53833 14.7536 7.65666 14.6358C7.77444 14.5175 7.83333 14.375 7.83333 14.2083C7.83333 14.0139 7.77083 13.8578 7.64583 13.74C7.52083 13.6217 7.36111 13.5694 7.16666 13.5833C6.59722 13.625 5.99305 13.4689 5.35416 13.115C4.71527 12.7606 4.31249 12.1181 4.14583 11.1875C4.11805 11.0347 4.045 10.9097 3.92666 10.8125C3.80888 10.7153 3.67361 10.6667 3.52083 10.6667C3.32638 10.6667 3.16666 10.7394 3.04166 10.885C2.91666 11.0311 2.87499 11.2014 2.91666 11.3958C3.15277 12.6597 3.70833 13.5625 4.58333 14.1042C5.45833 14.6458 6.34027 14.8889 7.22916 14.8333Z" fill="#699BF7"/>
</svg>
