<svg width="26" height="26" viewBox="0 0 26 26" fill="none" xmlns="http://www.w3.org/2000/svg">
<path d="M4.39874 5.6238L5.86944 4.14296C6.06435 3.94886 6.21908 3.71818 6.32477 3.46411C6.43046 3.21005 6.48502 2.93761 6.48534 2.6624C6.48566 2.38719 6.43173 2.11462 6.32663 1.86031C6.22154 1.606 6.06734 1.37496 5.87289 1.18041C5.67887 0.984835 5.44816 0.829572 5.19401 0.723541C4.93987 0.61751 4.66729 0.562802 4.39195 0.562562C4.11662 0.562321 3.84395 0.616553 3.58961 0.722139C3.33528 0.827725 3.1043 0.982585 2.90995 1.17782L1.42977 2.65953C1.2344 2.85374 1.0793 3.08469 0.973375 3.3391C0.867453 3.59351 0.812802 3.86637 0.812562 4.14199C0.812322 4.41761 0.866497 4.69056 0.971974 4.94516C1.07745 5.19975 1.23215 5.43097 1.42718 5.62553C2.24615 6.44534 3.57719 6.44534 4.39616 5.62553L4.39874 5.6238ZM2.03667 5.01541C1.55391 4.53215 1.55391 3.74686 2.03667 3.27223L3.51943 1.78793C4.00219 1.30467 4.78668 1.30467 5.26081 1.78793C5.74358 2.27119 5.74358 3.05649 5.26081 3.53112L3.78667 5.01541C3.30391 5.49867 2.51943 5.49867 2.03667 5.01541Z" fill="#333333"/>
<path d="M21.2936 5.57384C20.6746 4.98889 19.9955 4.47111 19.2678 4.02914C19.613 3.62927 19.7945 3.11346 19.7756 2.58525C19.7567 2.05704 19.539 1.55552 19.166 1.18136C18.9721 0.985729 18.7414 0.830399 18.4873 0.724294C18.2332 0.618189 17.9606 0.563402 17.6853 0.563081C17.4099 0.56276 17.1372 0.616912 16.8829 0.722425C16.6285 0.827937 16.3975 0.98273 16.2031 1.17791L14.9419 2.43956C14.5958 2.38415 14.2475 2.34384 13.8979 2.31874V2.28854C13.8979 2.05967 13.8071 1.84017 13.6454 1.67833C13.4837 1.5165 13.2645 1.42558 13.0358 1.42558C12.8072 1.42558 12.5879 1.5165 12.4263 1.67833C12.2646 1.84017 12.1738 2.05967 12.1738 2.28854V2.31788C5.97806 2.75195 1.08408 7.87277 0.98494 14.1543C0.98494 14.2578 1.07115 14.3441 1.1746 14.3441C1.24356 14.3441 1.31253 14.301 1.33839 14.2406C1.59389 13.7546 1.97692 13.3475 2.44628 13.0632C2.91565 12.7788 3.45357 12.628 4.00219 12.6268C5.10564 12.6268 6.07116 13.2309 6.5884 14.1198C6.67461 14.2578 6.82116 14.3441 6.98496 14.3441H7.03668C7.20048 14.3441 7.34703 14.2578 7.43323 14.1198C7.69714 13.667 8.07458 13.2912 8.52818 13.0293C8.98178 12.7675 9.49583 12.6287 10.0194 12.6268C10.8651 12.6268 11.6307 12.9824 12.1746 13.5485V22.5682C12.1746 23.2741 11.6126 23.8367 10.9074 23.8367C10.5713 23.8367 10.249 23.7031 10.0113 23.4652C9.77365 23.2273 9.64014 22.9046 9.64014 22.5682C9.64014 22.3393 9.54931 22.1198 9.38764 21.958C9.22597 21.7961 9.0067 21.7052 8.77807 21.7052C8.54943 21.7052 8.33016 21.7961 8.16849 21.958C8.00682 22.1198 7.91599 22.3393 7.91599 22.5682C7.91599 24.2164 9.24789 25.5626 10.9074 25.5626C11.3004 25.5634 11.6898 25.4865 12.0531 25.3363C12.4164 25.1861 12.7465 24.9656 13.0244 24.6874C13.3023 24.4091 13.5226 24.0787 13.6727 23.715C13.8227 23.3514 13.8996 22.9616 13.8988 22.5682V13.5347C14.1762 13.2477 14.5084 13.0195 14.8757 12.8635C15.2429 12.7076 15.6378 12.6271 16.0367 12.6268C17.1402 12.6268 18.1057 13.2309 18.6229 14.1198C18.7091 14.2578 18.8557 14.3441 19.0195 14.3441H19.0712C19.235 14.3441 19.3815 14.2578 19.4678 14.1198C19.7317 13.667 20.1091 13.2912 20.5627 13.0293C21.0163 12.7675 21.5303 12.6287 22.054 12.6268C23.2091 12.6268 24.2091 13.2827 24.7091 14.2492C24.7436 14.3096 24.804 14.3528 24.8729 14.3528C24.9764 14.3528 25.0626 14.2665 25.0626 14.1629C25.0415 12.3625 24.6152 10.59 23.8152 8.97736L25.1954 7.59576C25.3905 7.40176 25.5455 7.17111 25.6514 6.91703C25.7573 6.66295 25.8121 6.39044 25.8126 6.11513C25.813 5.83981 25.7592 5.56711 25.6542 5.31267C25.5492 5.05822 25.395 4.82702 25.2005 4.63235C25.0065 4.43677 24.7758 4.28151 24.5217 4.17548C24.2675 4.06945 23.9949 4.01474 23.7196 4.0145C23.4443 4.01426 23.1716 4.06849 22.9173 4.17408C22.6629 4.27966 22.4319 4.43452 22.2376 4.62976L21.2936 5.57384ZM7.57117 8.46735C7.08841 7.98409 7.08841 7.1988 7.57117 6.72417L9.05393 5.23987C9.53669 4.75661 10.3212 4.75661 10.7953 5.23987C11.0261 5.4711 11.1557 5.7846 11.1557 6.11146C11.1557 6.43833 11.0261 6.75182 10.7953 6.98306L9.32117 8.46735C8.83841 8.95061 8.05393 8.95061 7.57117 8.46735ZM24.5885 6.98306L23.1057 8.46735C22.6316 8.95061 21.8471 8.95061 21.3643 8.46735C20.8815 7.98409 20.8815 7.1988 21.3643 6.72417L22.8471 5.23987C23.3298 4.75661 24.1143 4.75661 24.5885 5.23987C25.0712 5.72313 25.0712 6.50843 24.5885 6.98306ZM18.554 3.53121L17.0712 5.0155C16.5971 5.49876 15.8126 5.49876 15.3298 5.0155C14.847 4.53224 14.847 3.74695 15.3298 3.27232L16.8126 1.78802C17.2953 1.30476 18.0798 1.30476 18.554 1.78802C19.0367 2.27128 19.0367 3.05658 18.554 3.53121Z" fill="#333333"/>
</svg>
