<svg width="23" height="23" viewBox="0 0 23 23" fill="none" xmlns="http://www.w3.org/2000/svg">
<path d="M17.0995 15.333H5.27907C4.01539 15.3253 2.79927 14.8677 1.86452 14.0483C0.929772 13.2288 0.342383 12.1054 0.215285 10.8939C0.0881859 9.68238 0.430349 8.46837 1.17599 7.48526C1.92163 6.50215 3.01811 5.81933 4.25463 5.56808C4.59483 4.0392 5.46885 2.66897 6.73087 1.68603C7.99288 0.703079 9.56655 0.16687 11.1893 0.16687C12.812 0.16687 14.3857 0.703079 15.6477 1.68603C16.9097 2.66897 17.7838 4.0392 18.124 5.56808C19.3605 5.81933 20.457 6.50215 21.2026 7.48526C21.9483 8.46837 22.2904 9.68238 22.1633 10.8939C22.0362 12.1054 21.4488 13.2288 20.5141 14.0483C19.5793 14.8677 18.3632 15.3253 17.0995 15.333ZM11.1893 1.66517C9.84462 1.66646 8.54674 2.14098 7.53964 2.99953C6.53253 3.85808 5.88557 5.04153 5.72037 6.32741L5.67308 6.98042H4.99538C4.05488 7.01667 3.16785 7.41144 2.52942 8.07787C1.891 8.74431 1.55346 9.62782 1.59108 10.5341C1.6287 11.4403 2.03839 12.295 2.73002 12.9102C3.42166 13.5253 4.33857 13.8506 5.27907 13.8143H17.0995C18.04 13.8506 18.9569 13.5253 19.6486 12.9102C20.3402 12.295 20.7499 11.4403 20.7875 10.5341C20.8251 9.62782 20.4876 8.74431 19.8492 8.07787C19.2107 7.41144 18.3237 7.01667 17.3832 6.98042H16.7055L16.6267 6.35778C16.4693 5.07157 15.8299 3.885 14.8287 3.02093C13.8275 2.15686 12.5333 1.67476 11.1893 1.66517ZM8.03718 17.6489L7.20974 16.8516L6.0671 17.9526L4.92445 16.8516L4.09702 17.6489L5.23967 18.7499L4.09702 19.8509L4.92445 20.6482L6.0671 19.5472L7.20974 20.6482L8.03718 19.8509L6.89453 18.7499L8.03718 17.6489ZM19.0696 17.6489L18.2422 16.8516L17.0995 17.9526L15.9569 16.8516L15.1295 17.6489L16.2721 18.7499L15.1295 19.8509L15.9569 20.6482L17.0995 19.5472L18.2422 20.6482L19.0696 19.8509L17.927 18.7499L19.0696 17.6489ZM13.5534 19.1675L12.726 18.3703L11.5833 19.4713L10.4407 18.3703L9.61324 19.1675L10.7559 20.2686L9.61324 21.3696L10.4407 22.1669L11.5833 21.0659L12.726 22.1669L13.5534 21.3696L12.4107 20.2686L13.5534 19.1675Z" fill="#333333"/>
</svg>
