<svg width="30" height="30" viewBox="0 0 30 30" fill="none" xmlns="http://www.w3.org/2000/svg">
<path d="M8.125 23.75C7.6875 23.75 7.31792 23.5987 7.01625 23.2962C6.71375 22.9946 6.5625 22.625 6.5625 22.1875C6.5625 21.75 6.71375 21.3804 7.01625 21.0788C7.31792 20.7763 7.6875 20.625 8.125 20.625C8.5625 20.625 8.9325 20.7763 9.235 21.0788C9.53667 21.3804 9.6875 21.75 9.6875 22.1875C9.6875 22.625 9.53667 22.9946 9.235 23.2962C8.9325 23.5987 8.5625 23.75 8.125 23.75ZM11.875 27.5C11.4375 27.5 11.0679 27.3487 10.7662 27.0462C10.4637 26.7446 10.3125 26.375 10.3125 25.9375C10.3125 25.5 10.4637 25.1304 10.7662 24.8288C11.0679 24.5263 11.4375 24.375 11.875 24.375C12.3125 24.375 12.6821 24.5263 12.9837 24.8288C13.2862 25.1304 13.4375 25.5 13.4375 25.9375C13.4375 26.375 13.2862 26.7446 12.9837 27.0462C12.6821 27.3487 12.3125 27.5 11.875 27.5ZM15.625 23.75C15.1875 23.75 14.8179 23.5987 14.5162 23.2962C14.2137 22.9946 14.0625 22.625 14.0625 22.1875C14.0625 21.75 14.2137 21.3804 14.5162 21.0788C14.8179 20.7763 15.1875 20.625 15.625 20.625C16.0625 20.625 16.4321 20.7763 16.7337 21.0788C17.0362 21.3804 17.1875 21.75 17.1875 22.1875C17.1875 22.625 17.0362 22.9946 16.7337 23.2962C16.4321 23.5987 16.0625 23.75 15.625 23.75ZM23.125 23.75C22.6875 23.75 22.3179 23.5987 22.0162 23.2962C21.7137 22.9946 21.5625 22.625 21.5625 22.1875C21.5625 21.75 21.7137 21.3804 22.0162 21.0788C22.3179 20.7763 22.6875 20.625 23.125 20.625C23.5625 20.625 23.9325 20.7763 24.235 21.0788C24.5367 21.3804 24.6875 21.75 24.6875 22.1875C24.6875 22.625 24.5367 22.9946 24.235 23.2962C23.9325 23.5987 23.5625 23.75 23.125 23.75ZM19.375 27.5C18.9375 27.5 18.5679 27.3487 18.2662 27.0462C17.9637 26.7446 17.8125 26.375 17.8125 25.9375C17.8125 25.5 17.9637 25.1304 18.2662 24.8288C18.5679 24.5263 18.9375 24.375 19.375 24.375C19.8125 24.375 20.1825 24.5263 20.485 24.8288C20.7867 25.1304 20.9375 25.5 20.9375 25.9375C20.9375 26.375 20.7867 26.7446 20.485 27.0462C20.1825 27.3487 19.8125 27.5 19.375 27.5ZM9.375 18.75C7.47917 18.75 5.85958 18.0779 4.51625 16.7338C3.17208 15.3904 2.5 13.7708 2.5 11.875C2.5 10.1458 3.07292 8.63542 4.21875 7.34375C5.36458 6.05208 6.78125 5.29167 8.46875 5.0625C9.13542 3.875 10.0471 2.9425 11.2037 2.265C12.3596 1.58833 13.625 1.25 15 1.25C16.875 1.25 18.505 1.84917 19.89 3.0475C21.2758 4.245 22.1146 5.73958 22.4062 7.53125C23.8437 7.65625 25.0521 8.25 26.0312 9.3125C27.0104 10.375 27.5 11.6458 27.5 13.125C27.5 14.6875 26.9533 16.0158 25.86 17.11C24.7658 18.2033 23.4375 18.75 21.875 18.75H9.375ZM9.375 16.25H21.875C22.75 16.25 23.4896 15.9479 24.0937 15.3437C24.6979 14.7396 25 14 25 13.125C25 12.25 24.6979 11.5104 24.0937 10.9063C23.4896 10.3021 22.75 10 21.875 10H20V8.75C20 7.375 19.5104 6.19792 18.5312 5.21875C17.5521 4.23958 16.375 3.75 15 3.75C14 3.75 13.0883 4.02083 12.265 4.5625C11.4425 5.10417 10.8229 5.83333 10.4062 6.75L10.0937 7.5H9.3125C8.125 7.54167 7.10958 7.98417 6.26625 8.8275C5.42208 9.67167 5 10.6875 5 11.875C5 13.0833 5.42708 14.1146 6.28125 14.9688C7.13542 15.8229 8.16667 16.25 9.375 16.25Z" fill="#222426"/>
</svg>
